{
  "streams": [
    {
      "index": 0,
      "codec_name": "aac",
      "codec_long_name": "AAC (Advanced Audio Coding)",
      "codec_type": "audio",
      "codec_tag_string": "aavd",
      "codec_tag": "0x64766161",
      "sample_fmt": "s16",
      "sample_rate": "22050",
      "channels": 2,
      "bits_per_sample": 0,
      "initial_padding": 0,
      "id": "0x1",
      "r_frame_rate": "0/0",
      "avg_frame_rate": "0/0",
      "time_base": "1/22050",
      "start_pts": 0,
      "start_time": "0.000000",
      "duration_ts": 1788201308,
      "duration": "81097.564989",
      "bit_rate": "62794",
      "nb_frames": "1746292",
      "extradata_size": 2,
      "disposition": {
        "default": 1,
        "dub": 0,
        "original": 0,
        "comment": 0,
        "lyrics": 0,
        "karaoke": 0,
        "forced": 0,
        "hearing_impaired": 0,
        "visual_impaired": 0,
        "clean_effects": 0,
        "attached_pic": 0,
        "timed_thumbnails": 0,
        "non_diegetic": 0,
        "captions": 0,
        "descriptions": 0,
        "metadata": 0,
        "dependent": 0,
        "still_image": 0,
        "multilayer": 0
      },
      "tags": {
        "creation_time": "2024-12-26T21:31:00.000000Z",
        "language": "eng",
        "handler_name": "Apple Sound Media Handler",
        "vendor_id": "[0][0][0][0]"
      }
    },
    {
      "index": 1,
      "codec_name": "bin_data",
      "codec_long_name": "binary data",
      "codec_type": "data",
      "codec_tag_string": "text",
      "codec_tag": "0x74786574",
      "id": "0x2",
      "r_frame_rate": "0/0",
      "avg_frame_rate": "0/0",
      "time_base": "1/22050",
      "start_pts": 0,
      "start_time": "0.000000",
      "duration_ts": 1788201308,
      "duration": "81097.564989",
      "nb_frames": "88",
      "extradata_size": 43,
      "disposition": {
        "default": 1,
        "dub": 0,
        "original": 0,
        "comment": 0,
        "lyrics": 0,
        "karaoke": 0,
        "forced": 0,
        "hearing_impaired": 0,
        "visual_impaired": 0,
        "clean_effects": 0,
        "attached_pic": 0,
        "timed_thumbnails": 0,
        "non_diegetic": 0,
        "captions": 0,
        "descriptions": 0,
        "metadata": 0,
        "dependent": 0,
        "still_image": 0,
        "multilayer": 0
      },
      "tags": {
        "creation_time": "2024-12-26T21:31:00.000000Z",
        "language": "eng",
        "handler_name": "Apple Text Media Handler"
      }
    },
    {
      "index": 2,
      "codec_name": "mjpeg",
      "codec_long_name": "Motion JPEG",
      "profile": "Baseline",
      "codec_type": "video",
      "codec_tag_string": "[0][0][0][0]",
      "codec_tag": "0x0000",
      "width": 500,
      "height": 500,
      "coded_width": 500,
      "coded_height": 500,
      "closed_captions": 0,
      "film_grain": 0,
      "has_b_frames": 0,
      "sample_aspect_ratio": "1:1",
      "display_aspect_ratio": "1:1",
      "pix_fmt": "yuvj420p",
      "level": -99,
      "color_range": "pc",
      "color_space": "bt470bg",
      "chroma_location": "center",
      "refs": 1,
      "id": "0x0",
      "r_frame_rate": "90000/1",
      "avg_frame_rate": "0/0",
      "time_base": "1/90000",
      "start_pts": 0,
      "start_time": "0.000000",
      "duration_ts": 7298780849,
      "duration": "81097.564989",
      "bits_per_raw_sample": "8",
      "disposition": {
        "default": 0,
        "dub": 0,
        "original": 0,
        "comment": 0,
        "lyrics": 0,
        "karaoke": 0,
        "forced": 0,
        "hearing_impaired": 0,
        "visual_impaired": 0,
        "clean_effects": 0,
        "attached_pic": 1,
        "timed_thumbnails": 0,
        "non_diegetic": 0,
        "captions": 0,
        "descriptions": 0,
        "metadata": 0,
        "dependent": 0,
        "still_image": 0,
        "multilayer": 0
      }
    }
  ],
  "format": {
    "filename": "ArcanumUnboundedTheCosmereCollection_ep6.aax",
    "nb_streams": 3,
    "nb_programs": 0,
    "nb_stream_groups": 0,
    "format_name": "mov,mp4,m4a,3gp,3g2,mj2",
    "format_long_name": "QuickTime / MOV",
    "start_time": "0.000000",
    "duration": "81097.564989",
    "size": "655698424",
    "bit_rate": "64682",
    "probe_score": 100,
    "tags": {
      "major_brand": "aax ",
      "minor_version": "1",
      "compatible_brands": "aax M4B mp42isom",
      "creation_time": "2024-12-26T21:31:00.000000Z",
      "genre": "Audiobook",
      "title": "Arcanum Unbounded: The Cosmere Collection",
      "artist": "Brandon Sanderson",
      "album_artist": "Brandon Sanderson",
      "album": "Arcanum Unbounded: The Cosmere Collection (Unabridged)",
      "copyright": "©2016 Dragonsteel Entertainment (P)2016 Macmillan Audio",
      "date": "2016"
    }
  }
}
